<?xml version="1.0" encoding="UTF-8"?>
<svg version="1.1" xmlns="http://www.w3.org/2000/svg" width="170" height="214">
<path d="M0 0 C1.13377075 0.00125885 2.2675415 0.0025177 3.43566895 0.0038147 C4.72380493 -0.00864288 6.01194092 -0.02110046 7.33911133 -0.03393555 C8.74175567 -0.0165587 10.1443849 0.00207736 11.54699707 0.0218811 C12.98901365 0.02291884 14.43103309 0.02188137 15.87304688 0.01885986 C18.89288668 0.01903914 21.91165666 0.03985691 24.93127441 0.07608032 C28.79868187 0.12145834 32.66452696 0.12254264 36.53212738 0.10904503 C39.50911301 0.10235623 42.48574352 0.11564213 45.46266174 0.1353035 C46.88837322 0.14299218 48.31412424 0.14531025 49.73985291 0.14213181 C51.73360072 0.14138865 53.72729556 0.16962356 55.7208252 0.1991272 C56.85459595 0.20834198 57.9883667 0.21755676 59.15649414 0.22705078 C62.75565692 0.86932879 63.86902884 1.88266591 66.07824707 4.7484436 C67.12149048 6.75996399 67.12149048 6.75996399 67.89904785 8.92300415 C68.20172073 9.74746536 68.50439362 10.57192657 68.8162384 11.42137146 C69.13215439 12.31692245 69.44807037 13.21247345 69.77355957 14.13516235 C70.11843918 15.08376633 70.46331879 16.0323703 70.81864929 17.00971985 C71.9571455 20.14817551 73.0800047 23.29199995 74.20324707 26.4359436 C75.00048055 28.64096324 75.79892068 30.84554695 76.59851074 33.04971313 C78.26395869 37.64372653 79.92414836 42.2395899 81.58068848 46.83682251 C85.09858832 56.58765133 88.6776809 66.31590856 92.25793457 76.04397583 C93.38577959 79.10993986 94.51159573 82.1766417 95.63684082 85.24356079 C99.10113287 94.68211282 102.57964076 104.11497254 106.09777832 113.53359985 C106.40860855 114.36649536 106.71943878 115.19939087 107.03968811 116.05752563 C108.47944669 119.91437452 109.9226502 123.76986457 111.37243652 127.62295532 C111.8708332 128.95510981 112.36913084 130.28730135 112.86730957 131.61953735 C113.29737305 132.76349976 113.72743652 133.90746216 114.17053223 135.08609009 C115.07824707 137.7484436 115.07824707 137.7484436 115.07824707 139.7484436 C111.37935248 139.13859002 108.35088904 138.06353816 104.95324707 136.4984436 C89.45151724 129.97637435 73.76668639 127.76108586 57.07824707 126.7484436 C56.6193811 125.3718457 56.6193811 125.3718457 56.15124512 123.96743774 C55.94610291 123.35204132 55.74096069 122.7366449 55.52960205 122.1026001 C55.06057573 120.69545886 54.5916251 119.28829239 54.1227417 117.88110352 C52.79592763 113.89953315 51.46772027 109.91843593 50.13708496 105.93814087 C47.63641692 98.45352838 45.14205817 90.96741252 42.70133972 83.46299744 C41.71312215 80.42560704 40.71859685 77.39029862 39.72366333 74.35510254 C39.25310055 72.91322937 38.78577348 71.47029605 38.32174683 70.02630615 C37.67446618 68.01296923 37.01624539 66.00351823 36.35559082 63.99453735 C35.98683838 62.85685913 35.61808594 61.71918091 35.23815918 60.54702759 C34.14214221 57.90260695 33.26667278 56.53704185 31.07824707 54.7484436 C28.61070084 55.25013209 28.61070084 55.25013209 26.07824707 56.7484436 C24.89774256 59.11176658 24.10479367 61.12555845 23.35168457 63.6234436 C23.0070668 64.68078705 23.0070668 64.68078705 22.65548706 65.75949097 C21.90282811 68.08362695 21.17814303 70.41551463 20.45324707 72.7484436 C19.93717346 74.35938257 19.41924706 75.96972909 18.89953613 77.57949829 C17.82146282 80.92883538 16.75455693 84.28143052 15.69641113 87.63711548 C14.10833656 92.66741788 12.48496713 97.6857879 10.85168457 102.7015686 C8.24480855 110.71218012 5.65540795 118.72822065 3.07824707 126.7484436 C1.85492676 126.83481079 0.63160645 126.92117798 -0.62878418 127.01016235 C-18.79256629 128.4577365 -35.03716877 133.07903286 -51.92175293 139.7484436 C-52.91175293 140.0784436 -53.90175293 140.4084436 -54.92175293 140.7484436 C-54.34614027 136.80001874 -53.51381046 133.22060173 -52.15026855 129.47305298 C-51.78415466 128.45909454 -51.41804077 127.44513611 -51.04083252 126.40045166 C-50.44048187 124.76286392 -50.44048187 124.76286392 -49.82800293 123.0921936 C-49.40923889 121.93754608 -48.99047485 120.78289856 -48.559021 119.59326172 C-47.42136012 116.46026849 -46.27901808 113.32906414 -45.13426208 110.1986618 C-44.18012673 107.58708535 -43.22977556 104.97413886 -42.27943039 102.36118126 C-34.45807468 80.8580371 -26.5651236 59.3809226 -18.5884552 37.93490601 C-16.94134731 33.50437457 -15.30361673 29.07071917 -13.68399048 24.63006592 C-12.66380634 21.83445671 -11.63550284 19.04183078 -10.60925293 16.2484436 C-10.27828613 15.32918091 -9.94731934 14.40991821 -9.60632324 13.46279907 C-9.30178223 12.63924927 -8.99724121 11.81569946 -8.68347168 10.9671936 C-8.31161743 9.94528931 -8.31161743 9.94528931 -7.93225098 8.90274048 C-4.26929877 1.09363435 -4.26929877 1.09363435 0 0 Z " fill="#FFFFFF" transform="translate(54.9217529296875,-0.748443603515625)"/>
<path d="M0 0 C0.42667969 0.37511719 0.85335937 0.75023437 1.29296875 1.13671875 C14.60072403 12.02987101 32.31122053 14.1490635 49 13 C58.08580562 11.88649756 65.69441495 9.65127592 73.70703125 5.20703125 C76 4 76 4 78 4 C80.63514729 9.27029457 79.6157988 17.27713062 78.3515625 22.8671875 C74.23915647 34.1499425 65.40217092 40.17481487 56 47 C51.46273885 50.30925022 48.11216948 53.16042356 46.35546875 58.6328125 C45.63426296 63.43556751 46.3387347 68.21976889 47 73 C39.58015423 70.19249079 35.40666618 66.35935672 32.0234375 59.2265625 C30.47698017 54.35109016 30.05545424 49.42353817 29.71972656 44.33325195 C29.39188052 39.845738 28.95666403 36.61370048 26 33 C22.03229538 31.80220238 19.71192411 31.78094643 15.75 33 C12.10797158 35.64874794 11.43176766 37.78423966 10 42 C4.27852283 38.40364292 1.35445834 32.50711797 -0.55517578 26.15258789 C-1.05025143 23.75682389 -1.12952704 21.56711816 -1.1328125 19.12109375 C-1.13410156 18.20005859 -1.13539062 17.27902344 -1.13671875 16.33007812 C-1.13285156 15.37552734 -1.12898438 14.42097656 -1.125 13.4375 C-1.12886719 12.47908203 -1.13273437 11.52066406 -1.13671875 10.53320312 C-1.13542969 9.61345703 -1.13414063 8.69371094 -1.1328125 7.74609375 C-1.13168457 6.90747803 -1.13055664 6.0688623 -1.12939453 5.20483398 C-1 3 -1 3 0 0 Z " fill="#E43AA0" transform="translate(46,141)"/>
</svg>
