<svg xmlns="http://www.w3.org/2000/svg" viewBox="0 0 64 64" role="img" aria-labelledby="title">
  <title id="title">JavaScript</title>
  <rect width="64" height="64" rx="14" fill="#F7DF1E"/>
  <path fill="#111827" d="M17.5 48.2c1.2 2.4 3.5 4.4 7.2 4.4 4.3 0 7.2-2.3 7.2-7.3V27.1h-5.4v18c0 2.5-1 3.1-2.6 3.1-1.7 0-2.4-1.2-3.2-2.6l-3.2 2.6Zm17.3-.6c1.6 3 4.9 5 9.2 5 4.8 0 8.4-2.5 8.4-7.1 0-4.3-2.5-6.2-7-8.1l-1.2-.5c-2.3-1-3.2-1.6-3.2-3.1 0-1.3 1-2.2 2.6-2.2 1.6 0 2.6.7 3.6 2.2l4.1-2.6c-1.9-3.3-4.5-4.6-7.7-4.6-4.8 0-7.9 3.1-7.9 7.2 0 4.4 2.6 6.4 6.5 8l1.2.5c2.4 1 3.8 1.6 3.8 3.4 0 1.5-1.4 2.6-3.7 2.6-2.7 0-4.2-1.4-5.4-3.3l-4.3 2.5Z"/>
</svg>
