<?xml version="1.0" encoding="UTF-8"?>
<svg version="1.1" xmlns="http://www.w3.org/2000/svg" width="250" height="301">
<path d="M0 0 C1.17731689 0.00829834 2.35463379 0.01659668 3.56762695 0.02514648 C29.03469247 0.51573711 52.0201736 11.0734359 69.75 29.4375 C88.41337895 50.55133786 94.35355882 74.65669643 92.75 102.4375 C91.47572569 112.91879946 87.83582361 123.78944971 81.625 132.375 C80.30340521 137.00058175 82.36520153 139.9638434 84.3359375 144.2109375 C92.74504603 163.39857188 91.31646919 186.52122496 84.22265625 205.8359375 C75.98531294 225.98137657 61.12773502 238.64418956 43.23193359 249.87646484 C40.62284555 251.51747497 38.0234086 253.17294387 35.42578125 254.83203125 C25.88082702 260.92700203 16.31895853 266.99573224 6.73413086 273.02783203 C2.75436721 275.53303525 -1.2135878 278.05428309 -5.1640625 280.60546875 C-29.56594212 296.31626795 -54.80799879 306.42936409 -84.34472656 300.26000977 C-87.69525161 299.4434854 -90.96047971 298.47792239 -94.25 297.4375 C-95.36117187 297.09847656 -96.47234375 296.75945312 -97.6171875 296.41015625 C-119.77578297 288.7982182 -138.17768183 272.19459222 -148.6875 251.375 C-158.40664801 231.35631196 -160.92933795 207.45864434 -154.609375 185.95703125 C-152.65779303 180.90422851 -150.24487974 176.21417782 -147.54296875 171.5234375 C-145.16599689 165.85030224 -147.5666748 161.28762737 -149.6875 155.8125 C-157.11303048 135.25279421 -156.24459786 112.16881244 -147.21386719 92.23925781 C-138.86357783 74.89634914 -126.25611224 63.5205842 -110.25 53.4375 C-108.59048107 52.37864532 -106.93166086 51.31869498 -105.2734375 50.2578125 C-101.58525357 47.90166116 -97.89207628 45.55360296 -94.1953125 43.2109375 C-89.0910243 39.9747747 -83.99778861 36.72169156 -78.90917969 33.4609375 C-76.80424184 32.11273619 -74.69812175 30.76637891 -72.59082031 29.421875 C-67.47308832 26.15516995 -62.37221961 22.86757111 -57.3046875 19.5234375 C-39.19401041 7.63893082 -22.16319341 -0.20389175 0 0 Z " fill="#FF3E01" transform="translate(157.25,-0.4375)"/>
<path d="M0 0 C10.81854153 8.97106751 19.15613618 22.00759879 20.62841797 36.16699219 C21.27557261 45.17070759 20.86260733 53.02262168 16.4140625 61.10546875 C12.77111617 59.78369176 9.88803653 58.14270974 6.7265625 55.91796875 C-0.80597966 50.99284503 -9.1692185 48.15178399 -17.5859375 45.10546875 C-17.62460937 44.12707031 -17.62460937 44.12707031 -17.6640625 43.12890625 C-18.03500574 37.41300814 -18.60676193 33.51482546 -22.5859375 29.10546875 C-26.7638062 26.04849165 -31.12902853 25.1619682 -36.23046875 25.3203125 C-43.29775685 26.97400855 -49.18536338 31.47710697 -55.14599609 35.47167969 C-57.55506752 37.08479816 -59.98202092 38.66609938 -62.41796875 40.23828125 C-65.74025438 42.38374449 -69.05453455 44.54074943 -72.36328125 46.70703125 C-77.84350768 50.28565758 -83.36981302 53.78977625 -88.8984375 57.29296875 C-91.61742591 59.02316911 -94.33511375 60.75537904 -97.05175781 62.48925781 C-98.68765969 63.53257867 -100.32493372 64.5737526 -101.96386719 65.61230469 C-104.07431074 66.95330611 -106.17512457 68.30809104 -108.2734375 69.66796875 C-108.87905518 70.04912842 -109.48467285 70.43028809 -110.10864258 70.82299805 C-113.64990694 73.14413259 -115.83575528 75.22963269 -117.5859375 79.10546875 C-118.56974042 84.65141661 -117.75544567 89.40585319 -114.5859375 94.10546875 C-109.95075634 98.28843712 -106.79596215 99.71746839 -100.60546875 99.62890625 C-94.24138765 98.52568909 -88.92060631 94.57570842 -83.5859375 91.10546875 C-82.8842041 90.65075195 -82.1824707 90.19603516 -81.45947266 89.72753906 C-78.51841643 87.81823751 -75.57973112 85.90542484 -72.64697266 83.98339844 C-67.48513546 80.62115516 -62.29193611 77.47187033 -56.5859375 75.10546875 C-55.72226563 74.74453125 -54.85859375 74.38359375 -53.96875 74.01171875 C-39.44280632 70.12024192 -23.54165718 72.84655033 -10.47265625 79.75 C2.37203754 87.4498638 10.8758548 98.80767459 15.4140625 113.10546875 C18.49373996 125.40350961 16.98697428 139.66881332 10.953125 150.80078125 C9.52528491 152.99690078 8.04385777 155.05600119 6.4140625 157.10546875 C5.78242188 157.94078125 5.15078125 158.77609375 4.5 159.63671875 C-3.64132755 169.27214761 -17.10579991 175.6112161 -27.65869141 182.25878906 C-31.39995806 184.61900098 -35.13189016 186.99367246 -38.86254883 189.37060547 C-40.67801477 190.5271004 -42.49425898 191.68237453 -44.3112793 192.83642578 C-49.03186724 195.83518928 -53.74194846 198.84887936 -58.4375 201.88671875 C-77.8065802 214.38667385 -94.81652089 224.11076953 -118.77539062 219.70263672 C-126.10092602 217.73489337 -132.62018892 213.69099634 -138.5859375 209.10546875 C-139.24980469 208.62851563 -139.91367188 208.1515625 -140.59765625 207.66015625 C-150.54087948 199.885298 -157.40254262 187.42919421 -159.5859375 175.10546875 C-160.33393374 166.39179829 -160.59672157 155.1270369 -156.5859375 147.10546875 C-153.14801244 148.71418903 -150.0755902 150.72232762 -146.8984375 152.79296875 C-139.25390248 157.65063246 -131.01675465 160.87449691 -122.5859375 164.10546875 C-122.53332764 164.71672607 -122.48071777 165.3279834 -122.42651367 165.95776367 C-122.34892822 166.76318604 -122.27134277 167.5686084 -122.19140625 168.3984375 C-122.08155396 169.59376099 -122.08155396 169.59376099 -121.96948242 170.81323242 C-121.1708212 175.58638975 -118.43590147 178.33645373 -114.9609375 181.48046875 C-110.27606751 183.73614689 -106.68417763 183.88977877 -101.5859375 183.10546875 C-94.69617772 180.37874433 -88.47365316 176.26460741 -82.3359375 172.16796875 C-80.57877274 171.01073461 -78.82093592 169.85452042 -77.0625 168.69921875 C-76.16176758 168.10625 -75.26103516 167.51328125 -74.33300781 166.90234375 C-69.81862848 163.94946143 -65.26522729 161.05876181 -60.7109375 158.16796875 C-59.80899658 157.59312744 -58.90705566 157.01828613 -57.9777832 156.42602539 C-53.16344513 153.36080438 -48.33344634 150.32402261 -43.48046875 147.3203125 C-42.48321777 146.69825928 -41.4859668 146.07620605 -40.45849609 145.43530273 C-38.55394033 144.24792581 -36.64436526 143.06854808 -34.72900391 141.89868164 C-28.88942688 138.24417689 -23.85315418 134.90711878 -21.5859375 128.10546875 C-20.93993773 122.61447066 -21.97131146 119.27955008 -25.04296875 114.83984375 C-27.99484195 111.52178881 -31.26442624 110.44166018 -35.58032227 109.81665039 C-42.43960952 109.45183642 -46.63452119 111.86769227 -52.2734375 115.54296875 C-53.14629395 116.08703369 -54.01915039 116.63109863 -54.91845703 117.19165039 C-58.82480156 119.63895118 -62.68066159 122.15556912 -66.50390625 124.73046875 C-81.62576089 134.89962294 -95.16213903 138.07381709 -113.078125 135.62890625 C-127.75267224 132.46530256 -140.24288913 123.00427104 -148.5859375 110.66796875 C-149.63305327 108.83999648 -150.63535562 106.98544963 -151.5859375 105.10546875 C-152.01777344 104.25210938 -152.44960937 103.39875 -152.89453125 102.51953125 C-157.65000445 91.03399391 -157.67880938 75.48855186 -153.5234375 63.79296875 C-147.21545596 50.2228572 -136.12339405 41.66637564 -123.5859375 34.10546875 C-121.45231434 32.79559037 -119.31952819 31.48434784 -117.1875 30.171875 C-116.09727539 29.5030127 -115.00705078 28.83415039 -113.88378906 28.14501953 C-108.53717881 24.83841737 -103.24938618 21.44153652 -97.9609375 18.04296875 C-96.92880127 17.38184082 -95.89666504 16.72071289 -94.83325195 16.03955078 C-89.72894675 12.76968663 -84.63177705 9.48924068 -79.54296875 6.1953125 C-53.0947534 -10.87239642 -28.30772529 -20.73904345 0 0 Z " fill="#FFFDFD" transform="translate(194.5859375,45.89453125)"/>
</svg>
